<mxfile host="app.diagrams.net" modified="2023-11-27T15:36:44.459Z" agent="Mozilla/5.0 (Windows NT 10.0; Win64; x64) AppleWebKit/537.36 (KHTML, like Gecko) Chrome/119.0.0.0 Safari/537.36" etag="qei4qBqFT497BhRvVwXa" version="22.1.4" type="device">
  <diagram name="Page-1" id="4SaV8Scy8z52fkXbTntU">
    <mxGraphModel dx="2918" dy="2036" grid="1" gridSize="10" guides="1" tooltips="1" connect="1" arrows="1" fold="1" page="1" pageScale="1" pageWidth="827" pageHeight="1169" math="0" shadow="0">
      <root>
        <mxCell id="0" />
        <mxCell id="1" parent="0" />
        <mxCell id="HDKCLgBYvoo_a0cAm_rK-5" value="&lt;font style=&quot;font-size: 18px;&quot;&gt;&lt;b&gt;Clients&lt;/b&gt;&lt;/font&gt;" style="shape=umlActor;verticalLabelPosition=bottom;verticalAlign=top;html=1;" parent="1" vertex="1">
          <mxGeometry x="-420" y="-480" width="130" height="310" as="geometry" />
        </mxCell>
        <mxCell id="HDKCLgBYvoo_a0cAm_rK-8" value="" style="endArrow=block;dashed=1;endFill=0;endSize=12;html=1;rounded=0;exitX=0;exitY=0.5;exitDx=0;exitDy=0;entryX=1;entryY=0.5;entryDx=0;entryDy=0;" parent="1" edge="1">
          <mxGeometry width="160" relative="1" as="geometry">
            <mxPoint x="317.25" y="-525" as="sourcePoint" />
            <mxPoint x="97.25" y="-550" as="targetPoint" />
          </mxGeometry>
        </mxCell>
        <mxCell id="HDKCLgBYvoo_a0cAm_rK-11" value="Explorer_listeEvenement" style="ellipse;whiteSpace=wrap;html=1;" parent="1" vertex="1">
          <mxGeometry x="321" y="-320" width="184.5" height="120" as="geometry" />
        </mxCell>
        <mxCell id="HDKCLgBYvoo_a0cAm_rK-31" value="&lt;font style=&quot;font-size: 18px;&quot;&gt;&lt;b&gt;GESTION CLIENTS&lt;/b&gt;&lt;/font&gt;" style="text;html=1;strokeColor=none;fillColor=none;align=center;verticalAlign=middle;whiteSpace=wrap;rounded=0;" parent="1" vertex="1">
          <mxGeometry x="390" y="-710" width="190" height="60" as="geometry" />
        </mxCell>
        <mxCell id="HDKCLgBYvoo_a0cAm_rK-32" value="&#xa;&lt;span style=&quot;color: rgb(0, 0, 0); font-family: Helvetica; font-size: 18px; font-style: normal; font-variant-ligatures: normal; font-variant-caps: normal; font-weight: 400; letter-spacing: normal; orphans: 2; text-align: center; text-indent: 0px; text-transform: none; widows: 2; word-spacing: 0px; -webkit-text-stroke-width: 0px; background-color: rgb(251, 251, 251); text-decoration-thickness: initial; text-decoration-style: initial; text-decoration-color: initial; float: none; display: inline !important;&quot;&gt;include&lt;/span&gt;&#xa;&#xa;" style="whiteSpace=wrap;html=1;aspect=fixed;" parent="1" vertex="1">
          <mxGeometry x="-90" y="-625" width="1180" height="1180" as="geometry" />
        </mxCell>
        <mxCell id="HDKCLgBYvoo_a0cAm_rK-33" value="&lt;font style=&quot;font-size: 18px;&quot;&gt;Explorer_listeEvenement&lt;/font&gt;" style="ellipse;whiteSpace=wrap;html=1;" parent="1" vertex="1">
          <mxGeometry y="-600" width="360" height="120" as="geometry" />
        </mxCell>
        <mxCell id="HDKCLgBYvoo_a0cAm_rK-35" value="&lt;font style=&quot;font-size: 18px;&quot;&gt;SeDéconnecter&lt;/font&gt;" style="ellipse;whiteSpace=wrap;html=1;" parent="1" vertex="1">
          <mxGeometry x="670" y="-90" width="265" height="110" as="geometry" />
        </mxCell>
        <mxCell id="HDKCLgBYvoo_a0cAm_rK-38" value="&lt;font style=&quot;font-size: 18px;&quot;&gt;S&#39;inscrire_Evenement&lt;/font&gt;" style="ellipse;whiteSpace=wrap;html=1;" parent="1" vertex="1">
          <mxGeometry x="50" y="-420" width="290" height="100" as="geometry" />
        </mxCell>
        <mxCell id="HDKCLgBYvoo_a0cAm_rK-39" value="&lt;font style=&quot;font-size: 18px;&quot;&gt;S&#39;Authentifier&lt;/font&gt;" style="ellipse;whiteSpace=wrap;html=1;" parent="1" vertex="1">
          <mxGeometry x="80" y="-200" width="290" height="125" as="geometry" />
        </mxCell>
        <mxCell id="HDKCLgBYvoo_a0cAm_rK-42" value="" style="endArrow=none;html=1;rounded=0;entryX=0.028;entryY=0.659;entryDx=0;entryDy=0;entryPerimeter=0;exitX=0.5;exitY=0.5;exitDx=0;exitDy=0;exitPerimeter=0;" parent="1" source="HDKCLgBYvoo_a0cAm_rK-5" target="HDKCLgBYvoo_a0cAm_rK-33" edge="1">
          <mxGeometry width="50" height="50" relative="1" as="geometry">
            <mxPoint x="-315" y="-330" as="sourcePoint" />
            <mxPoint x="-250" y="-380" as="targetPoint" />
          </mxGeometry>
        </mxCell>
        <mxCell id="HDKCLgBYvoo_a0cAm_rK-49" value="&lt;font style=&quot;font-size: 18px;&quot;&gt;Réserver_Evenement&lt;/font&gt;" style="ellipse;whiteSpace=wrap;html=1;" parent="1" vertex="1">
          <mxGeometry x="630" y="-310" width="270" height="100" as="geometry" />
        </mxCell>
        <mxCell id="vtJss5XEdlXhz0v7qyCF-2" value="" style="endArrow=none;html=1;rounded=0;entryX=0;entryY=0.5;entryDx=0;entryDy=0;exitX=0.5;exitY=0.5;exitDx=0;exitDy=0;exitPerimeter=0;" edge="1" parent="1" source="HDKCLgBYvoo_a0cAm_rK-5" target="HDKCLgBYvoo_a0cAm_rK-38">
          <mxGeometry width="50" height="50" relative="1" as="geometry">
            <mxPoint x="-315" y="-325" as="sourcePoint" />
            <mxPoint x="-130" y="-360" as="targetPoint" />
          </mxGeometry>
        </mxCell>
        <mxCell id="vtJss5XEdlXhz0v7qyCF-5" value="" style="endArrow=none;html=1;rounded=0;entryX=0;entryY=0.5;entryDx=0;entryDy=0;exitX=0.5;exitY=0.5;exitDx=0;exitDy=0;exitPerimeter=0;" edge="1" parent="1" source="HDKCLgBYvoo_a0cAm_rK-5" target="HDKCLgBYvoo_a0cAm_rK-39">
          <mxGeometry width="50" height="50" relative="1" as="geometry">
            <mxPoint x="-170" y="-240" as="sourcePoint" />
            <mxPoint x="-120" y="-290" as="targetPoint" />
          </mxGeometry>
        </mxCell>
        <mxCell id="vtJss5XEdlXhz0v7qyCF-9" value="&lt;font style=&quot;font-size: 18px;&quot;&gt;Envoyer_Email_Confirmation_réservation&lt;/font&gt;" style="ellipse;whiteSpace=wrap;html=1;" vertex="1" parent="1">
          <mxGeometry x="215.5" y="60" width="504.5" height="125" as="geometry" />
        </mxCell>
        <mxCell id="vtJss5XEdlXhz0v7qyCF-16" value="" style="endArrow=none;html=1;rounded=0;entryX=1;entryY=0.5;entryDx=0;entryDy=0;exitX=0.5;exitY=0.5;exitDx=0;exitDy=0;exitPerimeter=0;" edge="1" parent="1" source="vtJss5XEdlXhz0v7qyCF-29" target="vtJss5XEdlXhz0v7qyCF-9">
          <mxGeometry width="50" height="50" relative="1" as="geometry">
            <mxPoint x="-347.6100000000001" y="158.57000000000016" as="sourcePoint" />
            <mxPoint x="-100" y="160" as="targetPoint" />
          </mxGeometry>
        </mxCell>
        <mxCell id="vtJss5XEdlXhz0v7qyCF-18" value="&lt;font style=&quot;font-size: 18px;&quot;&gt;Envoyer_Email_Déclinaison_réservation&lt;/font&gt;" style="ellipse;whiteSpace=wrap;html=1;" vertex="1" parent="1">
          <mxGeometry x="215.5" y="300" width="520" height="125" as="geometry" />
        </mxCell>
        <mxCell id="vtJss5XEdlXhz0v7qyCF-19" value="" style="endArrow=none;html=1;rounded=0;entryX=1;entryY=0.5;entryDx=0;entryDy=0;exitX=0.5;exitY=0.5;exitDx=0;exitDy=0;exitPerimeter=0;" edge="1" parent="1" source="vtJss5XEdlXhz0v7qyCF-29" target="vtJss5XEdlXhz0v7qyCF-18">
          <mxGeometry width="50" height="50" relative="1" as="geometry">
            <mxPoint x="-347.74000000000024" y="162.2899999999995" as="sourcePoint" />
            <mxPoint x="-100" y="230" as="targetPoint" />
          </mxGeometry>
        </mxCell>
        <mxCell id="vtJss5XEdlXhz0v7qyCF-21" value="&lt;font style=&quot;font-size: 18px;&quot;&gt;include&lt;/font&gt;" style="text;html=1;strokeColor=none;fillColor=none;align=center;verticalAlign=middle;whiteSpace=wrap;rounded=0;" vertex="1" parent="1">
          <mxGeometry x="414" y="-260" width="116" height="56" as="geometry" />
        </mxCell>
        <mxCell id="vtJss5XEdlXhz0v7qyCF-22" value="" style="endArrow=block;dashed=1;endFill=0;endSize=12;html=1;rounded=0;exitX=0.06;exitY=0.804;exitDx=0;exitDy=0;exitPerimeter=0;entryX=1;entryY=0.5;entryDx=0;entryDy=0;" edge="1" parent="1" source="HDKCLgBYvoo_a0cAm_rK-49" target="HDKCLgBYvoo_a0cAm_rK-39">
          <mxGeometry width="160" relative="1" as="geometry">
            <mxPoint x="360" y="-120" as="sourcePoint" />
            <mxPoint x="600" y="-210" as="targetPoint" />
            <Array as="points" />
          </mxGeometry>
        </mxCell>
        <mxCell id="vtJss5XEdlXhz0v7qyCF-29" value="&lt;font style=&quot;font-size: 18px;&quot;&gt;&lt;b style=&quot;&quot;&gt;Systeme&lt;/b&gt;&lt;/font&gt;" style="shape=umlActor;verticalLabelPosition=bottom;verticalAlign=top;html=1;" vertex="1" parent="1">
          <mxGeometry x="1330" y="50" width="130" height="310" as="geometry" />
        </mxCell>
        <mxCell id="vtJss5XEdlXhz0v7qyCF-31" value="" style="endArrow=block;dashed=1;endFill=0;endSize=12;html=1;rounded=0;exitX=0.267;exitY=0.03;exitDx=0;exitDy=0;exitPerimeter=0;" edge="1" parent="1" source="HDKCLgBYvoo_a0cAm_rK-35">
          <mxGeometry width="160" relative="1" as="geometry">
            <mxPoint x="686" y="-195" as="sourcePoint" />
            <mxPoint x="370" y="-130" as="targetPoint" />
            <Array as="points" />
          </mxGeometry>
        </mxCell>
      </root>
    </mxGraphModel>
  </diagram>
</mxfile>
